<svg width="48" height="22" viewBox="0 0 48 22" fill="none" xmlns="http://www.w3.org/2000/svg">
<path d="M12 21C12 20.4477 12.4477 20 13 20H35C35.5523 20 36 20.4477 36 21C36 21.5523 35.5523 22 35 22H13C12.4477 22 12 21.5523 12 21Z" fill="#C2ADFF"/>
<path d="M0 11C0 10.4477 0.447715 10 1 10H47C47.5523 10 48 10.4477 48 11C48 11.5523 47.5523 12 47 12H0.999999C0.447714 12 0 11.5523 0 11Z" fill="#C2ADFF"/>
<path d="M12 1C12 0.447715 12.4477 0 13 0H35C35.5523 0 36 0.447715 36 1C36 1.55228 35.5523 2 35 2H13C12.4477 2 12 1.55228 12 1Z" fill="#C2ADFF"/>
<rect x="23" y="10" width="2" height="2" rx="1" fill="#C2ADFF"/>
</svg>
