<svg width="32" height="32" viewBox="0 0 32 32" fill="none" xmlns="http://www.w3.org/2000/svg">
<rect width="32" height="32" rx="16" fill="#4772E8"/>
<path fill-rule="evenodd" clip-rule="evenodd" d="M11.4458 17.0758C11.4796 17.0865 11.5143 17.0943 11.5496 17.099C11.7721 17.5989 11.9934 18.0994 12.2134 18.6003C12.609 19.5017 13.0078 20.4301 13.0951 20.6971C13.2044 21.0255 13.3192 21.249 13.4451 21.402C13.5103 21.48 13.5851 21.5489 13.6732 21.6014C13.719 21.6288 13.7681 21.651 13.8194 21.6674C14.0711 21.7574 14.3008 21.7199 14.4447 21.6742C14.5292 21.6467 14.6095 21.6089 14.6838 21.5617L14.6877 21.5602L16.9104 20.2389L19.4784 22.1151C19.5161 22.1429 19.557 22.1661 19.6011 22.1849C19.9094 22.3124 20.2082 22.3573 20.4898 22.3214C20.7698 22.2839 20.9924 22.1721 21.1583 22.0454C21.3489 21.8989 21.5008 21.712 21.6019 21.4995L21.609 21.483L21.6114 21.477L21.6129 21.474V21.4725L21.6137 21.4717C21.6274 21.4395 21.6379 21.4061 21.6452 21.372L23.989 10.1046C23.9964 10.0686 24.0001 10.0319 24 9.99513C24 9.66517 23.8694 9.35096 23.5635 9.16124C23.3008 8.99851 23.009 8.99101 22.8242 9.00451C22.626 9.0195 22.4419 9.066 22.3184 9.10349C22.2493 9.12438 22.1811 9.1479 22.114 9.17399L22.1053 9.17774L8.95961 14.0941L8.95804 14.0949C8.91356 14.1105 8.86974 14.1277 8.82669 14.1466C8.72245 14.1913 8.62245 14.2445 8.52782 14.3056C8.34928 14.4218 7.93794 14.7413 8.00793 15.2692C8.06299 15.6892 8.36501 15.9479 8.54984 16.0724C8.65051 16.1406 8.74647 16.1894 8.81725 16.2216C8.84871 16.2366 8.91635 16.2621 8.94545 16.2741L8.95332 16.2764L11.4458 17.0758ZM22.5654 10.2126H22.5638C22.5571 10.2155 22.5503 10.2182 22.5434 10.2209L9.38196 15.144C9.37519 15.1466 9.36837 15.1491 9.36151 15.1515L9.35365 15.1537C9.32961 15.1628 9.30599 15.1728 9.28286 15.1837C9.30475 15.1957 9.32734 15.2065 9.3505 15.216L11.8217 16.0094C11.8659 16.0236 11.9081 16.0427 11.9476 16.0664L20.1091 11.5107L20.117 11.5069C20.1487 11.4886 20.1813 11.4716 20.2145 11.456C20.2712 11.4282 20.3616 11.3877 20.4639 11.3577C20.5346 11.3367 20.7446 11.2775 20.9712 11.3472C21.0913 11.3833 21.1984 11.4509 21.2802 11.5423C21.3619 11.6336 21.4151 11.7451 21.4336 11.8639C21.4629 11.968 21.4637 12.0774 21.436 12.1819C21.3809 12.3881 21.2299 12.5486 21.0915 12.6716C20.9735 12.7765 19.4438 14.1834 17.9345 15.5722L15.8793 17.462L15.5136 17.7994L20.132 21.1755C20.1943 21.2004 20.262 21.2107 20.3294 21.2055C20.3633 21.2011 20.3952 21.1876 20.4214 21.1665C20.4533 21.1408 20.4806 21.1104 20.5024 21.0765L20.504 21.0758L22.777 10.1474C22.7054 10.1638 22.6352 10.1853 22.567 10.2119L22.5654 10.2126ZM15.9108 19.507L14.989 18.8335L14.7656 20.1871L15.9108 19.507ZM14.1435 17.4972L15.0598 16.6536L17.1149 14.7623L17.8802 14.0589L12.7521 16.9213L12.7797 16.9828C13.1031 17.7112 13.4229 18.4412 13.7392 19.1725L13.9618 17.8227C13.9819 17.6975 14.046 17.5832 14.1435 17.4972Z" fill="#050318"/>
</svg>
